<?xml version="1.0" encoding="UTF-8"?>
<svg id="_图层_1" data-name="图层_1" xmlns="http://www.w3.org/2000/svg" version="1.1" viewBox="0 0 127.56 22.68">
  <!-- Generator: Adobe Illustrator 29.1.0, SVG Export Plug-In . SVG Version: 2.1.0 Build 142)  -->
  <defs>
    <style>
      .st0 {
        fill: #fff;
      }
    </style>
  </defs>
  <g>
    <path class="st0" d="M30.84,12.73h-2.69V4.59h-3.15v-2.03h9.14v2.03h-3.3v8.15Z"/>
    <path class="st0" d="M38.86,12.73h-2.69V2.56h2.69v10.17Z"/>
    <path class="st0" d="M44.24,10.88l-.65,1.85h-2.8l3.69-10.17h4.04l3.74,10.17h-2.76l-.66-1.85h-4.6ZM46.55,4.33l-1.71,4.84h3.44l-1.73-4.84Z"/>
    <path class="st0" d="M65.31,12.73h-4.54l-2.57-4.93c-.26-.52-.75-1.6-1.49-3.23h-.1c.02.31.03.59.03.81l.03.81c.02.38.04.92.04,1.62v4.93h-2.64V2.56h4.51l2.43,4.71c.49.95.61,1.22,1.07,2.2l.56,1.19h.1q-.1-2.14-.1-3.16V2.56h2.67v10.17Z"/>
    <path class="st0" d="M74.57,5.64c0-1.16-.26-1.34-1.9-1.34-1.82,0-2.2.21-2.2,1.19,0,.63.21.92.73,1.04q.24.05,2.13.15c1.87.09,2.52.21,3.11.55.75.43,1.01,1.02,1.01,2.36s-.21,2-.77,2.46c-.73.6-1.66.76-4,.76-2.85,0-3.86-.24-4.44-1.05-.37-.49-.49-1.02-.49-2.29h2.57v.18c0,.55.1.85.37,1.07.28.2.52.23,2.11.23,1.07,0,1.33-.05,1.63-.24.24-.17.37-.49.37-1.02,0-.44-.09-.72-.31-.85q-.28-.2-2.39-.32c-1.9-.11-2.45-.18-3.04-.44-.91-.4-1.28-1.14-1.28-2.59,0-1.22.3-1.97.94-2.38.75-.46,1.7-.61,3.86-.61,2.38,0,3.34.2,3.93.81.44.46.65,1.07.65,1.94,0,.06,0,.24-.02.41h-2.57Z"/>
    <path class="st0" d="M89.98,12.73h-2.69v-4.16h-4.72v4.16h-2.69V2.56h2.69v4h4.72v-4h2.69v10.17Z"/>
    <path class="st0" d="M102.76,2.56v6.59c0,.27-.05,1.07-.1,1.39-.09.79-.61,1.46-1.4,1.83-.75.35-1.47.44-3.42.44-1.8,0-2.66-.09-3.37-.38-1.26-.47-1.63-1.2-1.63-3.11V2.56h2.69v6.76c0,1.28.33,1.48,2.36,1.48,1.89,0,2.18-.21,2.18-1.59V2.56h2.69Z"/>
  </g>
  <path class="st0" d="M102.91,20.2H24.86v-5.97h78.06v5.97ZM29.84,16.46h1.27v-.93h-3.9v.93h1.29v2.65h1.34v-2.65ZM33.08,15.52h-1.34v3.58h1.34v-3.58ZM35.13,18.59h1.49l.21.51h1.37l-1.63-3.58h-1.35l-1.63,3.58h1.33l.21-.51ZM35.45,17.85l.46-1.05.42,1.05h-.87ZM42.75,15.52h-1.34v1.9s-.03-.04-.04-.07c-.02-.02-.03-.05-.05-.07,0,0,0,0,0-.01,0,0,0,0-.01-.02-.06-.09-.12-.17-.17-.25-.06-.08-.1-.14-.13-.19l-.96-1.31h-1.35v3.58h1.34v-1.9c.08.12.15.22.21.32s.12.18.18.26l.96,1.32h1.37v-3.58ZM47.3,16.57c-.06-.44-.26-.74-.61-.9s-.77-.23-1.28-.23c-.58,0-1.02.1-1.34.29-.32.19-.48.47-.48.82s.15.59.45.75c.3.16.63.29.99.38.1.03.2.05.3.07.1.02.19.04.28.06.03,0,.06.01.09.02l.09.02c.11.03.19.06.23.09.04.04.07.08.07.14,0,.09-.05.15-.16.2-.11.05-.26.08-.46.08s-.36-.03-.47-.1c-.1-.07-.18-.17-.21-.32h-1.36c0,.39.18.69.54.88.36.2.76.31,1.2.34.04,0,.09,0,.14,0,.05,0,.09,0,.14,0,.3,0,.57-.02.79-.07.22-.05.43-.12.62-.23s.33-.24.44-.4c.11-.16.16-.33.16-.5,0-.36-.15-.61-.45-.77-.3-.15-.63-.27-.98-.35-.07-.01-.14-.03-.21-.04s-.14-.03-.2-.04c-.16-.04-.29-.06-.39-.09s-.16-.04-.21-.06c-.04-.02-.07-.04-.08-.06s-.02-.05-.02-.09c0-.06.04-.11.13-.15.09-.04.2-.06.33-.06.17,0,.3.02.39.07.09.05.15.12.18.24h1.33ZM52.26,15.44h-1.34v1.32s-1.36,0-1.36,0v-1.32h-1.34v3.66h1.34v-1.41h1.36v1.41h1.34v-3.66ZM57.3,15.44h-1.34v2.26c0,.2-.06.35-.18.45s-.3.15-.53.15-.41-.05-.53-.15c-.12-.1-.18-.25-.18-.45v-2.26h-1.34v2.22c0,.54.18.93.55,1.16.37.23.87.35,1.5.35s1.16-.12,1.52-.35c.36-.23.53-.62.53-1.16v-2.22ZM61.53,17.77h1.86v-.86h-1.86v-.51h2.25v-.96h-3.59v3.66h1.34v-1.34ZM65.82,18.01h.9c.53,0,.95-.11,1.24-.33.3-.22.45-.52.45-.9,0-.21-.06-.41-.18-.6-.12-.19-.28-.33-.47-.45,0,0-.02,0-.03-.01,0,0-.02-.01-.03-.02-.14-.07-.29-.16-.45-.21-.16-.05-.38-.05-.64-.05h-2.13v3.66h1.34v-1.1ZM65.82,16.4h.7c.18,0,.32.03.4.09.08.06.13.16.13.29s-.05.23-.14.29-.23.1-.41.1h-.68v-.77ZM72.95,15.44h-1.4l-.82,2.49-.78-2.49h-1.37l1.4,3.66h1.51l1.47-3.66ZM78.95,16.57c-.06-.44-.26-.74-.61-.9s-.77-.23-1.28-.23c-.58,0-1.02.1-1.34.29-.32.19-.48.47-.48.82s.15.59.45.75c.3.16.63.29.99.38.1.03.2.05.3.07.1.02.19.04.28.06.03,0,.06.01.09.02l.09.02c.11.03.19.06.23.09.04.04.07.08.07.14,0,.09-.05.15-.16.2-.11.05-.26.08-.46.08s-.36-.03-.47-.1c-.1-.07-.18-.17-.21-.32h-1.36c0,.39.18.69.54.88.36.2.76.31,1.2.34.04,0,.09,0,.14,0,.05,0,.09,0,.14,0,.3,0,.57-.02.79-.07.22-.05.43-.12.62-.23s.33-.24.44-.4c.11-.16.16-.33.16-.5,0-.36-.15-.61-.45-.77-.3-.15-.63-.27-.98-.35-.07-.01-.14-.03-.21-.04s-.14-.03-.2-.04c-.16-.04-.29-.06-.39-.09s-.16-.04-.21-.06c-.04-.02-.07-.04-.08-.06s-.02-.05-.02-.09c0-.06.04-.11.13-.15.09-.04.2-.06.33-.06.17,0,.3.02.39.07.09.05.15.12.18.24h1.33ZM82.12,16.46h1.27v-1.02h-3.9v1.02h1.29v2.65h1.34v-2.65ZM88.06,15.44h-1.34v2.26c0,.2-.06.35-.18.45s-.3.15-.53.15-.41-.05-.53-.15c-.12-.1-.18-.25-.18-.45v-2.26h-1.34v2.22c0,.54.18.93.55,1.16.37.23.87.35,1.5.35s1.16-.12,1.52-.35c.36-.23.53-.62.53-1.16v-2.22ZM88.99,15.44v3.66h2.07c.13,0,.24,0,.33,0,.09,0,.18-.02.27-.03.03,0,.06,0,.09-.01.03,0,.06-.01.09-.02.42-.09.75-.29.99-.6.24-.3.35-.68.35-1.12,0-.57-.19-1.02-.56-1.33-.37-.31-.93-.55-1.62-.55h-2.02ZM90.32,16.46h.5c.33,0,.58.07.75.22.17.15.26.36.26.64s-.09.5-.26.64c-.17.14-.43.22-.77.22h-.49v-1.72ZM95.35,15.44h-1.34v3.66h1.34v-3.66ZM96.16,17.31c0,.56.21,1.01.62,1.35.41.34.96.51,1.65.51s1.24-.17,1.65-.51.62-.79.62-1.35-.21-1.02-.62-1.36c-.41-.34-.96-.51-1.65-.51s-1.24.17-1.65.51c-.41.34-.62.8-.62,1.36ZM97.52,17.31c0-.3.08-.54.25-.72s.39-.27.66-.27.5.09.66.27c.16.18.24.42.24.72s-.08.54-.24.71c-.16.18-.38.27-.66.27s-.49-.09-.66-.27c-.17-.18-.25-.42-.25-.71Z"/>
</svg>